<?xml version="1.0" encoding="utf-8"?>
<!-- Generator: Adobe Illustrator 23.0.3, SVG Export Plug-In . SVG Version: 6.00 Build 0)  -->
<svg version="1.1" id="Isolation_Mode" xmlns="http://www.w3.org/2000/svg" xmlns:xlink="http://www.w3.org/1999/xlink" x="0px"
	 y="0px" viewBox="0 0 73.6 45" style="enable-background:new 0 0 73.6 45;" xml:space="preserve">
<style type="text/css">
	.st0{fill:#1ABDB2;}
</style>
<path class="st0" d="M73.6,29.6c0,8.5-6.9,15.4-15.4,15.4c0,0,0,0,0,0H36.8h-0.9c-12.4-0.5-22.1-11-21.5-23.4
	C14.9,9.2,25.4-0.5,37.8,0c8.9,0.4,16.7,5.9,20,14.2h0.4C66.7,14.2,73.6,21.1,73.6,29.6"/>
<path class="st0" d="M14.1,37.9c0,3.9-3.2,7.1-7.1,7.1S0,41.8,0,37.9s3.2-7.1,7.1-7.1S14.1,34,14.1,37.9"/>
</svg>
